# Blender v2.78 (sub 0) OBJ File: ''
# www.blender.org
mtllib Tree.mtl
o Cone.001
v 0.132771 23.959066 -0.143769
v 0.064946 23.959066 -0.193048
v 0.090853 23.959066 -0.272781
v 0.174690 23.959066 -0.272781
v 0.200597 23.959066 -0.193048
v 0.132771 19.908125 -3.673118
v 3.421555 19.908125 -1.283676
v 2.165352 19.908125 2.582522
v -1.899810 19.908125 2.582522
v -3.156013 19.908125 -1.283676
v -0.150738 21.419991 -0.708571
v 0.514495 21.419991 -0.637214
v 0.652199 21.419991 0.017511
v 0.072071 21.419991 0.350796
v -0.424171 21.419991 -0.097947
v -1.901500 18.052143 -3.756006
v 2.871762 18.052143 -3.243996
v 3.859832 18.052143 1.453865
v -0.302771 18.052143 3.845294
v -3.863468 18.052143 0.625416
v -0.545978 19.632858 -0.386543
v 0.086092 19.632858 -0.913597
v 0.782671 19.632858 -0.475332
v 0.581110 19.632858 0.322586
v -0.240040 19.632858 0.377460
v -4.737471 15.490149 -1.445352
v -0.202164 15.490149 -5.227134
v 4.796012 15.490149 -2.082436
v 3.349747 15.490149 3.642878
v -2.542270 15.490149 4.036616
v -0.805983 17.955368 -0.143637
v -0.225271 17.955368 -1.085814
v 0.850243 17.955368 -0.824673
v 0.934235 17.955368 0.278898
v -0.089369 17.955368 0.699801
v -6.603086 12.384169 0.297576
v -2.436294 12.384169 -6.462844
v 5.280858 12.384169 -4.589075
v 5.883529 12.384169 3.329400
v -1.461153 12.384169 6.349516
v -1.017235 15.362553 -0.127559
v -0.305843 15.362553 -1.281759
v 1.011699 15.362553 -0.961852
v 1.114593 15.362553 0.390061
v -0.139358 15.362553 0.905683
v -8.118892 8.537638 0.412943
v -3.014424 8.537638 -7.868809
v 6.439358 8.537638 -5.573377
v 7.177651 8.537638 4.127034
v -1.819842 8.537638 7.826782
vt 0.5286 -0.5805
vt -0.5188 0.1175
vt -0.1583 1.3441
vt 1.1119 1.4042
vt 1.5365 0.2147
vt 0.5286 -0.5805
vt -0.5188 0.1175
vt -0.1583 1.3441
vt 1.1119 1.4042
vt 1.5365 0.2147
vt 1.5519 1.6317
vt -0.6092 1.5294
vt -0.5519 -0.6317
vt 1.6092 -0.5294
vt 1.5519 1.6317
vt -0.6092 1.5294
vt -0.5519 -0.6317
vt 1.6092 -0.5294
vt 1.5519 1.6317
vt -0.6092 1.5294
vt -0.5519 -0.6317
vt 1.6092 -0.5294
vt 1.5519 1.6317
vt -0.6092 1.5294
vt -0.5519 -0.6317
vt 1.6092 -0.5294
vt 1.5519 1.6317
vt -0.6092 1.5294
vt -0.5519 -0.6317
vt 1.6092 -0.5294
vt 0.5286 -0.5805
vt -0.5188 0.1175
vt -0.1583 1.3441
vt 1.1119 1.4042
vt 1.5365 0.2147
vt 0.5286 -0.5805
vt -0.5188 0.1175
vt -0.1583 1.3441
vt 1.1119 1.4042
vt 1.5365 0.2147
vt 1.5519 1.6317
vt -0.6092 1.5294
vt -0.5519 -0.6317
vt 1.6092 -0.5294
vt 1.5519 1.6317
vt -0.6092 1.5294
vt -0.5519 -0.6317
vt 1.6092 -0.5294
vt 1.5519 1.6317
vt -0.6092 1.5294
vt -0.5519 -0.6317
vt 1.6092 -0.5294
vt 1.5519 1.6317
vt -0.6092 1.5294
vt -0.5519 -0.6317
vt 1.6092 -0.5294
vt 1.5519 1.6317
vt -0.6092 1.5294
vt -0.5519 -0.6317
vt 1.6092 -0.5294
vt 0.5286 -0.5805
vt -0.5188 0.1175
vt -0.1583 1.3441
vt 1.1119 1.4042
vt 1.5365 0.2147
vt 0.5286 -0.5805
vt -0.5188 0.1175
vt -0.1583 1.3441
vt 1.1119 1.4042
vt 1.5365 0.2147
vt 1.5519 1.6317
vt -0.6092 1.5294
vt -0.5519 -0.6317
vt 1.6092 -0.5294
vt 1.5519 1.6317
vt -0.6092 1.5294
vt -0.5519 -0.6317
vt 1.6092 -0.5294
vt 1.5519 1.6317
vt -0.6092 1.5294
vt -0.5519 -0.6317
vt 1.6092 -0.5294
vt 1.5519 1.6317
vt -0.6092 1.5294
vt -0.5519 -0.6317
vt 1.6092 -0.5294
vt 1.5519 1.6317
vt -0.6092 1.5294
vt -0.5519 -0.6317
vt 1.6092 -0.5294
vt 0.5286 -0.5805
vt -0.5188 0.1175
vt -0.1583 1.3441
vt 1.1119 1.4042
vt 1.5365 0.2147
vt 0.5286 -0.5805
vt -0.5188 0.1175
vt -0.1583 1.3441
vt 1.1119 1.4042
vt 1.5365 0.2147
vt 1.5519 1.6317
vt -0.6092 1.5294
vt -0.5519 -0.6317
vt 1.6092 -0.5294
vt 1.5519 1.6317
vt -0.6092 1.5294
vt -0.5519 -0.6317
vt 1.6092 -0.5294
vt 1.5519 1.6317
vt -0.6092 1.5294
vt -0.5519 -0.6317
vt 1.6092 -0.5294
vt 1.5519 1.6317
vt -0.6092 1.5294
vt -0.5519 -0.6317
vt 1.6092 -0.5294
vt 1.5519 1.6317
vt -0.6092 1.5294
vt -0.5519 -0.6317
vt 1.6092 -0.5294
vt 0.5286 -0.5805
vt -0.5188 0.1175
vt -0.1583 1.3441
vt 1.1119 1.4042
vt 1.5365 0.2147
vt 0.5286 -0.5805
vt -0.5188 0.1175
vt -0.1583 1.3441
vt 1.1119 1.4042
vt 1.5365 0.2147
vt 1.5519 1.6317
vt -0.6092 1.5294
vt -0.5519 -0.6317
vt 1.6092 -0.5294
vt 1.5519 1.6317
vt -0.6092 1.5294
vt -0.5519 -0.6317
vt 1.6092 -0.5294
vt 1.5519 1.6317
vt -0.6092 1.5294
vt -0.5519 -0.6317
vt 1.6092 -0.5294
vt 1.5519 1.6317
vt -0.6092 1.5294
vt -0.5519 -0.6317
vt 1.6092 -0.5294
vt 1.5519 1.6317
vt -0.6092 1.5294
vt -0.5519 -0.6317
vt 1.6092 -0.5294
vn 0.0000 1.0000 0.0000
vn 0.0000 -1.0000 0.0000
vn -0.4804 0.5761 -0.6613
vn -0.0000 0.5761 0.8174
vn 0.4804 0.5761 -0.6613
vn -0.7774 0.5761 0.2526
vn 0.7774 0.5761 0.2526
vn -0.6974 0.6451 -0.3123
vn 0.3806 0.6451 0.6625
vn 0.0815 0.6451 -0.7597
vn -0.5125 0.6451 0.5667
vn 0.7477 0.6451 -0.1573
vn -0.7093 0.6451 0.2840
vn 0.7408 0.6451 0.1871
vn -0.4893 0.6451 -0.5868
vn 0.0509 0.6451 0.7624
vn 0.4069 0.6451 -0.6467
vn -0.5823 0.6451 0.4947
vn 0.7619 0.6451 -0.0580
vn -0.6505 0.6451 -0.4009
vn 0.2906 0.6451 0.7067
vn 0.1803 0.6451 -0.7425
g Cone.001_Cone.001_Material.001
usemtl Material.001
s off
f 1/1/1 5/2/1 4/3/1 3/4/1 2/5/1
f 6/6/2 7/7/2 8/8/2 9/9/2 10/10/2
f 5/11/3 1/12/3 6/13/3 10/14/3
f 3/15/4 4/16/4 9/17/4 8/18/4
f 1/19/5 2/20/5 7/21/5 6/22/5
f 4/23/6 5/24/6 10/25/6 9/26/6
f 2/27/7 3/28/7 8/29/7 7/30/7
f 11/31/1 15/32/1 14/33/1 13/34/1 12/35/1
f 16/36/2 17/37/2 18/38/2 19/39/2 20/40/2
f 15/41/8 11/42/8 16/43/8 20/44/8
f 13/45/9 14/46/9 19/47/9 18/48/9
f 11/49/10 12/50/10 17/51/10 16/52/10
f 14/53/11 15/54/11 20/55/11 19/56/11
f 12/57/12 13/58/12 18/59/12 17/60/12
f 21/61/1 25/62/1 24/63/1 23/64/1 22/65/1
f 26/66/2 27/67/2 28/68/2 29/69/2 30/70/2
f 25/71/13 21/72/13 26/73/13 30/74/13
f 23/75/14 24/76/14 29/77/14 28/78/14
f 21/79/15 22/80/15 27/81/15 26/82/15
f 24/83/16 25/84/16 30/85/16 29/86/16
f 22/87/17 23/88/17 28/89/17 27/90/17
f 31/91/1 35/92/1 34/93/1 33/94/1 32/95/1
f 36/96/2 37/97/2 38/98/2 39/99/2 40/100/2
f 35/101/18 31/102/18 36/103/18 40/104/18
f 33/105/19 34/106/19 39/107/19 38/108/19
f 31/109/20 32/110/20 37/111/20 36/112/20
f 34/113/21 35/114/21 40/115/21 39/116/21
f 32/117/22 33/118/22 38/119/22 37/120/22
f 41/121/1 45/122/1 44/123/1 43/124/1 42/125/1
f 46/126/2 47/127/2 48/128/2 49/129/2 50/130/2
f 45/131/18 41/132/18 46/133/18 50/134/18
f 43/135/19 44/136/19 49/137/19 48/138/19
f 41/139/20 42/140/20 47/141/20 46/142/20
f 44/143/21 45/144/21 50/145/21 49/146/21
f 42/147/22 43/148/22 48/149/22 47/150/22
o Cone
v 0.000000 0.264784 -1.000000
v 0.195090 0.264784 -0.980785
v 0.382683 0.264784 -0.923880
v 0.555570 0.264784 -0.831470
v 0.707107 0.264784 -0.707107
v 0.831470 0.264784 -0.555570
v 0.923880 0.264784 -0.382683
v 0.980785 0.264784 -0.195090
v 1.000000 0.264784 -0.000000
v 0.000000 24.552847 0.000000
v 0.980785 0.264784 0.195090
v 0.923880 0.264784 0.382683
v 0.831470 0.264784 0.555570
v 0.707107 0.264784 0.707107
v 0.555570 0.264784 0.831470
v 0.382683 0.264784 0.923880
v 0.195090 0.264784 0.980785
v -0.000000 0.264784 1.000000
v -0.195091 0.264784 0.980785
v -0.382684 0.264784 0.923879
v -0.555571 0.264784 0.831469
v -0.707107 0.264784 0.707106
v -0.831470 0.264784 0.555570
v -0.923880 0.264784 0.382683
v -0.980785 0.264784 0.195089
v -1.000000 0.264784 -0.000001
v -0.980785 0.264784 -0.195091
v -0.923879 0.264784 -0.382684
v -0.831469 0.264784 -0.555571
v -0.707106 0.264784 -0.707108
v -0.555569 0.264784 -0.831470
v -0.382682 0.264784 -0.923880
v -0.195089 0.264784 -0.980786
vt -2.0537 -5.8567
vt -2.0537 6.8567
vt -2.2756 -5.8558
vt -1.8208 -5.8567
vt -1.8208 6.8567
vt -2.0426 -5.8558
vt -0.8890 -5.8567
vt -0.8890 6.8567
vt -1.1109 -5.8558
vt -2.5196 -5.8567
vt -2.5196 6.8567
vt -2.7414 -5.8558
vt 2.8379 -5.8567
vt 2.7867 6.8566
vt 2.6160 -5.8567
vt -1.1220 -5.8567
vt -1.1220 6.8567
vt -1.3438 -5.8558
vt -2.2866 -5.8567
vt -2.2866 6.8567
vt -2.5085 -5.8558
vt 0.0427 -5.8567
vt 0.0427 6.8567
vt -0.1792 -5.8558
vt 3.0709 -5.8567
vt 3.0196 6.8566
vt 2.8490 -5.8567
vt -0.6561 -5.8567
vt -0.6561 6.8567
vt -0.8780 -5.8558
vt 2.3721 -5.8567
vt 2.3208 6.8566
vt 2.1502 -5.8567
vt -2.7525 -5.8567
vt -2.7525 6.8567
vt -2.9744 -5.8558
vt -3.9173 -5.8567
vt -3.9173 6.8567
vt -4.1392 -5.8558
vt 1.9062 -5.8567
vt 1.8549 6.8566
vt 1.6843 -5.8567
vt 0.9744 -5.8567
vt 0.9744 6.8567
vt 0.7526 -5.8558
vt 0.5086 -5.8567
vt 0.5086 6.8567
vt 0.2867 -5.8558
vt 2.6050 -5.8567
vt 2.5537 6.8566
vt 2.3831 -5.8567
vt 2.1391 -5.8567
vt 2.0878 6.8566
vt 1.9172 -5.8567
vt -3.6843 -5.8567
vt -3.6843 6.8567
vt -3.9062 -5.8558
vt -2.9855 -5.8567
vt -2.9854 6.8567
vt -3.2073 -5.8558
vt 1.2074 -5.8567
vt 1.1561 6.8566
vt 0.9855 -5.8567
vt 0.2756 -5.8567
vt 0.2756 6.8567
vt 0.0538 -5.8558
vt 1.6732 -5.8567
vt 1.6732 6.8567
vt 1.4514 -5.8558
vt 0.7415 -5.8567
vt 0.7415 6.8567
vt 0.5196 -5.8558
vt 1.4403 -5.8567
vt 1.4403 6.8567
vt 1.2184 -5.8558
vt -3.2184 -5.8567
vt -3.2184 6.8567
vt -3.4403 -5.8558
vt -3.4514 -5.8567
vt -3.4513 6.8567
vt -3.6733 -5.8558
vt -1.3549 -5.8567
vt -1.3549 6.8567
vt -1.5768 -5.8558
vt -0.1902 -5.8567
vt -0.1902 6.8567
vt -0.4121 -5.8558
vt -0.4232 -5.8567
vt -0.4232 6.8567
vt -0.6450 -5.8558
vt -1.5878 -5.8567
vt -1.5878 6.8567
vt -1.8097 -5.8558
vt 3.3038 -5.8567
vt 3.3038 6.8566
vt 3.0819 -5.8558
vt 4.0051 -5.8567
vt 4.1559 -5.8567
vt 4.3039 -5.8272
vt 4.4432 -5.7695
vt 4.5686 -5.6857
vt 4.6753 -5.5791
vt 4.7591 -5.4537
vt 4.8168 -5.3143
vt 4.8462 -5.1664
vt 4.8462 -5.0156
vt 4.8168 -4.8676
vt 4.7591 -4.7283
vt 4.6753 -4.6029
vt 4.5686 -4.4962
vt 4.4432 -4.4125
vt 4.3039 -4.3547
vt 4.1559 -4.3253
vt 4.0051 -4.3253
vt 3.8572 -4.3547
vt 3.7178 -4.4125
vt 3.5924 -4.4962
vt 3.4858 -4.6029
vt 3.4020 -4.7283
vt 3.3443 -4.8676
vt 3.3148 -5.0156
vt 3.3148 -5.1664
vt 3.3443 -5.3143
vt 3.4020 -5.4537
vt 3.4858 -5.5791
vt 3.5924 -5.6857
vt 3.7178 -5.7695
vt 3.8572 -5.8272
vn 0.0979 0.0409 -0.9944
vn 0.2900 0.0409 -0.9561
vn 0.4710 0.0409 -0.8812
vn 0.6339 0.0409 -0.7724
vn 0.7724 0.0409 -0.6339
vn 0.8812 0.0409 -0.4710
vn 0.9561 0.0409 -0.2900
vn 0.9944 0.0409 -0.0979
vn 0.9944 0.0409 0.0979
vn 0.9561 0.0409 0.2900
vn 0.8812 0.0409 0.4710
vn 0.7724 0.0409 0.6339
vn 0.6339 0.0409 0.7724
vn 0.4710 0.0409 0.8812
vn 0.2900 0.0409 0.9561
vn 0.0979 0.0409 0.9944
vn -0.0979 0.0409 0.9944
vn -0.2900 0.0409 0.9561
vn -0.4710 0.0409 0.8812
vn -0.6339 0.0409 0.7724
vn -0.7724 0.0409 0.6339
vn -0.8812 0.0409 0.4710
vn -0.9561 0.0409 0.2900
vn -0.9944 0.0409 0.0979
vn -0.9944 0.0409 -0.0979
vn -0.9561 0.0409 -0.2900
vn -0.8812 0.0409 -0.4710
vn -0.7724 0.0409 -0.6339
vn -0.6339 0.0409 -0.7724
vn -0.4710 0.0409 -0.8812
vn -0.2900 0.0409 -0.9561
vn -0.0979 0.0409 -0.9944
vn 0.0000 -1.0000 0.0000
g Cone_Cone_None
usemtl None
s off
f 51/151/23 60/152/23 52/153/23
f 52/154/24 60/155/24 53/156/24
f 53/157/25 60/158/25 54/159/25
f 54/160/26 60/161/26 55/162/26
f 55/163/27 60/164/27 56/165/27
f 56/166/28 60/167/28 57/168/28
f 57/169/29 60/170/29 58/171/29
f 58/172/30 60/173/30 59/174/30
f 59/175/31 60/176/31 61/177/31
f 61/178/32 60/179/32 62/180/32
f 62/181/33 60/182/33 63/183/33
f 63/184/34 60/185/34 64/186/34
f 64/187/35 60/188/35 65/189/35
f 65/190/36 60/191/36 66/192/36
f 66/193/37 60/194/37 67/195/37
f 67/196/38 60/197/38 68/198/38
f 68/199/39 60/200/39 69/201/39
f 69/202/40 60/203/40 70/204/40
f 70/205/41 60/206/41 71/207/41
f 71/208/42 60/209/42 72/210/42
f 72/211/43 60/212/43 73/213/43
f 73/214/44 60/215/44 74/216/44
f 74/217/45 60/218/45 75/219/45
f 75/220/46 60/221/46 76/222/46
f 76/223/47 60/224/47 77/225/47
f 77/226/48 60/227/48 78/228/48
f 78/229/49 60/230/49 79/231/49
f 79/232/50 60/233/50 80/234/50
f 80/235/51 60/236/51 81/237/51
f 81/238/52 60/239/52 82/240/52
f 82/241/53 60/242/53 83/243/53
f 83/244/54 60/245/54 51/246/54
f 51/247/55 52/248/55 53/249/55 54/250/55 55/251/55 56/252/55 57/253/55 58/254/55 59/255/55 61/256/55 62/257/55 63/258/55 64/259/55 65/260/55 66/261/55 67/262/55 68/263/55 69/264/55 70/265/55 71/266/55 72/267/55 73/268/55 74/269/55 75/270/55 76/271/55 77/272/55 78/273/55 79/274/55 80/275/55 81/276/55 82/277/55 83/278/55
