# Blender v2.78 (sub 0) OBJ File: ''
# www.blender.org
mtllib Sword.mtl
o Cylinder
v -0.066374 0.535958 -0.195377
v 0.019351 -1.046825 -0.195377
v -0.186060 0.529806 -0.108305
v -0.100335 -1.052977 -0.108305
v -0.140344 0.532156 0.032580
v -0.054619 -1.050627 0.032580
v 0.007596 0.539760 0.032580
v 0.093322 -1.043023 0.032580
v 0.053312 0.542110 -0.108305
v 0.139038 -1.040673 -0.108305
v 0.022998 -1.117776 -0.234086
v -0.133454 -1.125817 -0.120267
v -0.073694 -1.122745 0.063897
v 0.119691 -1.112806 0.063897
v 0.179451 -1.109733 -0.120267
v 0.028010 -1.215284 -0.234086
v -0.128442 -1.223325 -0.120266
v -0.068683 -1.220253 0.063897
v 0.124703 -1.210314 0.063897
v 0.184463 -1.207241 -0.120266
v 0.031444 -1.282080 -0.141011
v -0.036606 -1.285578 -0.091505
v -0.010614 -1.284242 -0.011401
v 0.073501 -1.279918 -0.011401
v 0.099494 -1.278582 -0.091505
v 0.040637 -1.326871 -0.075439
v 0.034868 -1.327171 -0.071242
v 0.037072 -1.327056 -0.064451
v 0.044202 -1.326685 -0.064451
v 0.046406 -1.326570 -0.071242
v -0.378687 6.635322 -0.571800
v -0.283282 6.639166 -0.069365
v -0.378687 6.635322 0.433070
v -0.537871 9.562468 -0.069365
v -0.474092 6.631477 -0.069365
v -0.053071 0.291155 -0.795145
v 0.084744 0.296709 -0.069365
v -0.053071 0.291155 0.656414
v -0.190886 0.285603 -0.069365
vt 0.9994 0.2817
vt 0.0003 0.2817
vt 0.0005 0.1883
vt 0.9996 0.1883
vt 0.9995 0.1877
vt 0.0004 0.1877
vt 0.0003 0.0943
vt 0.9994 0.0943
vt 0.9997 0.0937
vt 0.0006 0.0937
vt 0.0003 0.0003
vt 0.9994 0.0003
vt 0.6424 0.4703
vt 0.7358 0.4703
vt 0.7501 0.5192
vt 0.6280 0.5192
vt 0.9995 0.4697
vt 0.0004 0.4697
vt 0.0003 0.3763
vt 0.9994 0.3763
vt 0.9994 0.3757
vt 0.0003 0.3757
vt 0.0005 0.2823
vt 0.9996 0.2823
vt 0.1514 0.5251
vt 0.1225 0.6140
vt 0.0292 0.6140
vt 0.0003 0.5251
vt 0.0758 0.4703
vt 0.2741 0.6430
vt 0.1520 0.6430
vt 0.1520 0.5814
vt 0.2741 0.5814
vt 0.2142 0.7513
vt 0.2142 0.6579
vt 0.2631 0.6436
vt 0.2631 0.7656
vt 0.5197 0.6813
vt 0.6131 0.6813
vt 0.6274 0.7303
vt 0.5054 0.7303
vt 0.3346 0.5946
vt 0.3346 0.6879
vt 0.2856 0.7023
vt 0.2856 0.5802
vt 0.1080 0.7257
vt 0.0146 0.7257
vt 0.0003 0.6767
vt 0.1224 0.6767
vt 0.0000 0.0000
vt 0.0000 0.0000
vt 0.0000 0.0000
vt 0.0000 0.0000
vt 0.3967 0.5802
vt 0.3967 0.7023
vt 0.3352 0.7023
vt 0.3352 0.5802
vt 0.3973 0.7150
vt 0.3973 0.5929
vt 0.4589 0.5929
vt 0.4589 0.7150
vt 0.2135 0.6436
vt 0.2135 0.7656
vt 0.1520 0.7656
vt 0.1520 0.6436
vt 0.0003 0.6146
vt 0.1224 0.6146
vt 0.1224 0.6761
vt 0.0003 0.6761
vt 0.0000 0.0000
vt 0.0000 0.0000
vt 0.0000 0.0000
vt 0.0000 0.0000
vt 0.0000 0.0000
vt 0.0000 0.0000
vt 0.5054 0.5764
vt 0.6274 0.5764
vt 0.5700 0.6807
vt 0.5655 0.6807
vt 0.2741 0.5808
vt 0.1520 0.5808
vt 0.2094 0.4703
vt 0.2139 0.4703
vt 0.6274 0.5758
vt 0.5054 0.5758
vt 0.5606 0.4703
vt 0.5651 0.4703
vt 0.3973 0.5923
vt 0.3973 0.4703
vt 0.5048 0.5247
vt 0.5048 0.5292
vt 0.3967 0.5796
vt 0.2747 0.5796
vt 0.3370 0.4703
vt 0.3415 0.4703
vt 0.0002 0.4653
vt 0.4665 0.4653
vt 0.0133 0.5444
vt 0.0133 0.5448
vt 0.4665 0.6239
vt 0.0002 0.6239
vt 0.0005 0.6244
vt 0.4599 0.7046
vt 0.0002 0.7046
vt 0.0002 0.7050
vt 0.4599 0.7066
vt 0.0002 0.7852
vt 0.9963 0.3523
vt 0.9963 0.4325
vt 0.0002 0.4648
vt 0.0002 0.3490
vt 0.6839 0.6669
vt 0.5681 0.6669
vt 0.4603 0.6244
vt 0.5762 0.6244
vt 0.9962 0.1521
vt 0.9963 0.2323
vt 0.0003 0.2323
vt 0.0002 0.1164
vt 0.9963 0.2651
vt 0.9963 0.3453
vt 0.0002 0.3486
vt 0.0002 0.2327
vt 0.9998 0.0358
vt 0.9968 0.1160
vt 0.0002 0.1160
vt 0.0045 0.0002
vn -0.5869 -0.0318 -0.8090
vn -0.9497 -0.0514 0.3090
vn 0.0000 0.0000 1.0000
vn -0.8898 0.3581 0.2828
vn 0.9497 0.0514 0.3090
vn 0.5869 0.0318 -0.8090
vn -0.0513 0.9987 0.0000
vn 0.9498 0.0488 0.3090
vn 0.5164 0.4304 -0.7403
vn -0.5578 0.3752 -0.7403
vn -0.0207 0.4028 0.9150
vn 0.8484 0.4475 0.2828
vn 0.4282 -0.7266 -0.5373
vn -0.9498 -0.0488 0.3090
vn 0.5870 0.0302 -0.8090
vn -0.5870 -0.0302 -0.8090
vn 0.0513 -0.9987 -0.0000
vn 0.0384 -0.7467 0.6641
vn -0.3515 -0.7667 -0.5373
vn 0.6691 -0.7142 0.2052
vn -0.5924 -0.7791 0.2052
vn -0.6809 0.7018 -0.2092
vn 0.5675 0.7993 -0.1975
vn 0.4312 -0.7215 -0.5418
vn -0.0387 0.7522 -0.6578
vn 0.3401 0.7817 0.5228
vn 0.9787 0.0852 -0.1865
vn 0.9787 0.0852 0.1865
vn -0.9822 -0.0214 0.1867
vn -0.9822 -0.0214 -0.1867
vn 0.9808 0.0569 0.1867
vn 0.0403 -0.9992 0.0000
vn -0.9814 -0.0438 0.1867
vn 0.9808 0.0569 -0.1867
vn -0.9814 -0.0438 -0.1867
usemtl Material.002
s off
f 1/1/1 2/2/1 4/3/1 3/4/1
f 3/5/2 4/6/2 6/7/2 5/8/2
f 5/9/3 6/10/3 8/11/3 7/12/3
f 6/13/4 4/14/4 12/15/4 13/16/4
f 7/17/5 8/18/5 10/19/5 9/20/5
f 9/21/6 10/22/6 2/23/6 1/24/6
f 1/25/7 3/26/7 5/27/7 7/28/7 9/29/7
f 15/30/8 14/31/8 19/32/8 20/33/8
f 2/34/9 10/35/9 15/36/9 11/37/9
f 4/38/10 2/39/10 11/40/10 12/41/10
f 8/42/11 6/43/11 13/44/11 14/45/11
f 10/46/12 8/47/12 14/48/12 15/49/12
f 16/50/13 20/51/13 25/52/13 21/53/13
f 13/54/14 12/55/14 17/56/14 18/57/14
f 11/58/15 15/59/15 20/60/15 16/61/15
f 14/62/3 13/63/3 18/64/3 19/65/3
f 12/66/16 11/67/16 16/68/16 17/69/16
f 22/70/17 21/53/17 25/52/17 24/71/17 23/72/17
f 19/73/18 18/74/18 23/72/18 24/71/18
f 17/75/19 16/50/19 21/53/19 22/70/19
f 20/51/20 19/73/20 24/71/20 25/52/20
f 18/74/21 17/75/21 22/70/21 23/72/21
f 19/76/22 20/77/22 30/78/22 29/79/22
f 17/80/23 18/81/23 28/82/23 27/83/23
f 16/84/24 20/85/24 30/86/24 26/87/24
f 18/88/25 19/89/25 29/90/25 28/91/25
f 16/92/26 17/93/26 27/94/26 26/95/26
usemtl Material.001
f 31/96/27 34/97/27 32/98/27
f 32/99/28 34/100/28 33/101/28
f 33/102/29 34/103/29 35/104/29
f 35/105/30 34/106/30 31/107/30
f 32/108/31 33/109/31 38/110/31 37/111/31
f 36/112/32 37/113/32 38/114/32 39/115/32
f 33/116/33 35/117/33 39/118/33 38/119/33
f 31/120/34 32/121/34 37/122/34 36/123/34
f 35/124/35 31/125/35 36/126/35 39/127/35
