# Blender v2.78 (sub 0) OBJ File: ''
# www.blender.org
mtllib CrossBowNext.mtl
o Cube_Cube.001
v -2.409873 0.569826 -0.398492
v 2.090048 0.569826 -0.398492
v -2.409873 0.532462 -0.361128
v 2.090048 0.532462 -0.361128
v -2.409873 0.569826 -0.323764
v 2.090048 0.569826 -0.323764
v -2.409873 0.607190 -0.361128
v 2.090048 0.607190 -0.361128
v -0.730883 -0.133446 -0.976457
v -0.730883 0.172551 -0.976457
v -0.567935 -0.095973 -2.231946
v -0.730883 0.172551 -2.231946
v 0.508859 -0.133446 -0.976457
v 0.508859 0.172551 -0.976457
v 0.345910 -0.095973 -2.231946
v 0.508859 0.172551 -2.231946
v -0.481313 -0.071846 -0.352918
v -0.481313 0.110951 -0.352918
v 0.259288 -0.071846 -0.352918
v 0.259288 0.110951 -0.352918
v -0.481313 -0.100247 1.584360
v -0.481313 0.035788 1.462256
v 0.259288 -0.100247 1.584360
v 0.259288 0.035788 1.462256
v -0.481313 0.003317 1.699740
v -0.481313 0.139352 1.577636
v 0.259288 0.003317 1.699740
v 0.259288 0.139352 1.577636
v -0.481313 0.200040 1.874613
v -0.481313 0.202090 1.691827
v 0.259288 0.200040 1.874613
v 0.259288 0.202090 1.691827
v -0.481313 0.349831 1.876293
v -0.481313 0.351881 1.693507
v 0.259288 0.349831 1.876293
v 0.259288 0.351881 1.693507
v -0.481313 0.350856 1.784900
v 0.259288 0.350856 1.784900
v -0.111012 0.219279 1.876293
v -0.111012 0.221329 1.693507
v -0.111012 0.220304 1.784900
v -0.481313 0.170137 -0.350467
v 0.259288 0.170137 -0.350467
v -0.481313 0.094975 1.464707
v 0.259288 0.094975 1.464707
v -0.111012 0.099897 -0.350467
v -0.111012 -0.170848 1.464707
v -0.481313 0.132556 0.557120
v 0.259288 0.132556 0.557120
v -0.111012 -0.133266 0.557120
v -0.296162 0.124045 -0.350467
v -0.296162 0.048882 1.464707
v -0.481313 0.151347 0.103326
v 0.259288 0.151347 0.103326
v 0.074138 0.124045 -0.350467
v 0.074138 0.048882 1.464707
v -0.481313 0.113765 1.010913
v 0.259288 0.113765 1.010913
v -0.111012 -0.152057 1.010913
v -0.111012 0.081106 0.103326
v 0.074138 0.086463 0.557120
v -0.296162 0.086463 0.557120
v -0.296162 0.105254 0.103326
v 0.074138 0.105254 0.103326
v 0.074138 0.067672 1.010913
v -0.296162 0.067672 1.010913
v -0.661768 -0.097404 -1.989226
v -0.661768 0.582264 -1.989226
v -0.661768 -0.097404 -2.255517
v -0.661768 0.582264 -2.255517
v -0.103192 -0.097404 -1.989226
v -0.103192 0.079679 -2.255517
v -0.103192 0.079679 -1.989226
v -0.103192 -0.097404 -2.255517
v -2.550870 0.506831 -0.354902
v 0.455384 -0.097404 -1.989226
v 0.455384 0.582264 -1.989226
v -2.550870 1.186499 -0.354902
v -2.550870 0.506831 -0.621193
v -2.550870 1.186499 -0.621193
v -2.361696 1.186499 -0.992820
v -2.361696 0.506831 -0.992820
v 0.455384 -0.097404 -2.255517
v -2.361696 1.186499 -0.726528
v -2.361696 0.506831 -0.726528
v -1.776668 0.506831 -1.297586
v -1.776668 1.186499 -1.297586
v -1.776668 0.506831 -1.563877
v -1.776668 1.186499 -1.563877
v -0.661768 0.582264 -2.255517
v -0.661768 -0.097404 -2.255517
v -0.661768 0.582264 -1.989226
v -0.661768 -0.097404 -1.989226
v 0.455384 0.582264 -2.255517
v 2.344486 0.506831 -0.354902
v 2.344486 1.186499 -0.354902
v 2.344486 0.506831 -0.621193
v 2.344486 1.186499 -0.621193
v 2.155312 1.186499 -0.992820
v 2.155312 0.506831 -0.992820
v 2.155312 1.186499 -0.726528
v 2.155312 0.506831 -0.726528
v 1.570284 0.506831 -1.297586
v 1.570284 1.186499 -1.297586
v 1.570284 0.506831 -1.563877
v 1.570284 1.186499 -1.563877
v 0.455384 0.582264 -2.255517
v 0.455384 -0.097404 -2.255517
v 0.455384 0.582264 -1.989226
v 0.455384 -0.097404 -1.989226
v -2.442932 0.037295 0.149680
v -2.442932 0.716963 0.149680
v -2.253758 0.716963 -0.221947
v -2.253758 0.037295 -0.221947
v 2.236549 0.037295 0.149680
v 2.236549 0.716963 0.149680
v 2.047375 0.716963 -0.221947
v 2.047375 0.037295 -0.221947
v -0.378920 -0.959714 1.372929
v -0.378920 -0.071750 1.372929
v -0.378920 -0.952507 1.155136
v -0.378920 -0.071750 0.137648
v 0.136194 -0.959714 1.372929
v 0.136194 -0.071750 1.372929
v 0.136194 -0.952507 1.155136
v 0.136194 -0.071750 0.137648
v -0.378920 -0.515732 1.372929
v -0.378920 -0.512128 1.023380
v 0.136194 -0.512128 1.023380
v 0.136194 -0.515732 1.372929
v -0.121363 -0.071750 0.137648
v -0.378920 -0.216881 0.895316
v 0.136194 -0.216881 0.895316
v -0.121363 -0.512128 1.023380
v -0.121363 -0.216881 0.895316
v -0.220988 -0.138922 0.712494
v -0.220988 -0.469669 0.619876
v -0.220988 -0.164323 0.792866
v -0.220988 -0.598515 1.079992
v -0.021738 -0.138922 0.712494
v -0.021738 -0.469669 0.619876
v -0.021738 -0.164323 0.792866
v -0.021738 -0.598515 1.079992
v -0.220988 -0.304296 0.666185
v -0.220988 -0.342097 0.796008
v -0.021738 -0.342097 0.796008
v -0.021738 -0.304296 0.666185
v -0.121363 -0.598515 1.079992
v -0.220988 -0.465428 0.812914
v -0.021738 -0.465428 0.812914
v -0.121363 -0.342097 0.796008
v -0.121363 -0.465428 0.812914
vt 0.8328 -0.1531
vt 0.6624 -0.1531
vt 0.6624 -0.1561
vt 0.8328 -0.1561
vt 0.2880 -0.9400
vt 0.6591 -0.1341
vt 0.2417 -0.1341
vt -0.1294 -0.9400
vt 1.8175 -0.3965
vt 1.8175 0.1056
vt 1.7004 0.2199
vt 1.7004 -0.2823
vt 1.4317 0.8918
vt 1.4317 1.0006
vt 1.0886 1.3093
vt 1.0886 0.8918
vt 0.1832 1.6396
vt -0.3189 1.6396
vt -0.2047 1.5225
vt 0.2975 1.5225
vt 1.8161 0.6722
vt 1.8161 1.1337
vt 1.6525 1.1337
vt 1.6525 0.6722
vt 1.5057 1.2170
vt 1.5057 0.3298
vt 1.6493 0.2515
vt 1.6493 1.1387
vt -0.1327 -0.9400
vt -0.1327 -0.5225
vt -0.9385 -0.1514
vt -0.9385 -0.5689
vt -0.9385 0.0265
vt -0.5593 -0.1482
vt -0.5593 0.7390
vt -0.9385 0.9136
vt 0.0270 1.2289
vt -0.0513 1.3725
vt -0.9385 1.3725
vt -0.8602 1.2289
vt 1.4378 0.2199
vt 1.1817 0.2199
vt 0.9356 -0.1309
vt 1.1917 -0.1309
vt 1.9363 1.2886
vt 1.8193 1.1743
vt 1.8193 0.6722
vt 1.9363 0.7864
vt 1.1677 -0.9400
vt 1.5108 -0.9400
vt 1.5108 -0.5225
vt 1.1677 -0.8312
vt -0.4364 1.5225
vt -0.3221 1.6396
vt -0.8243 1.6396
vt -0.9385 1.5225
vt 1.9370 -0.9400
vt 1.9370 -0.5225
vt 1.7734 -0.5225
vt 1.7734 -0.9400
vt 0.7236 1.6420
vt 0.8694 1.7161
vt 0.6133 1.7161
vt 0.4675 1.6420
vt 0.1185 1.3674
vt 0.1185 1.2038
vt 0.5800 1.2038
vt 0.5800 1.3674
vt 1.1678 -0.1762
vt 1.1678 -0.5193
vt 1.3314 -0.5193
vt 1.3314 -0.1762
vt 0.5764 0.5684
vt 0.1589 0.5684
vt -0.1294 0.2515
vt 0.2880 0.2515
vt -0.0513 1.3757
vt 0.0270 1.5193
vt -0.8602 1.5193
vt -0.9385 1.3757
vt -0.1729 1.1384
vt -0.1730 0.7035
vt -0.1654 0.7035
vt -0.1654 1.1384
vt -0.1545 0.7035
vt -0.1545 1.1384
vt -0.1621 1.1384
vt -0.1621 0.7035
vt 0.6624 -0.1499
vt 0.8327 -0.1499
vt 0.8327 -0.1469
vt 0.6624 -0.1469
vt 1.0818 0.2515
vt 1.0818 0.6690
vt 0.5796 0.6690
vt 0.5796 0.2515
vt 0.8328 -0.1371
vt 0.8327 -0.1341
vt 0.6624 -0.1341
vt 0.6624 -0.1371
vt -0.1387 0.3540
vt -0.5561 0.3540
vt -0.5561 -0.1482
vt -0.1387 -0.1482
vt 1.5778 1.7931
vt 1.5778 1.3757
vt 1.8339 1.3757
vt 1.8339 1.7931
vt 0.8593 1.6387
vt 0.6958 1.6387
vt 0.4675 1.5225
vt 0.6311 1.5225
vt -0.1294 -0.1309
vt 0.7577 -0.1309
vt 0.9324 0.2483
vt 0.0452 0.2483
vt -0.1387 0.7003
vt -0.5561 0.7003
vt -0.2474 0.3572
vt -0.1387 0.3572
vt 0.3007 1.5225
vt 0.4643 1.5225
vt 0.4643 1.9400
vt 0.3007 1.9400
vt 1.2272 1.7048
vt 0.9990 1.5886
vt 1.1625 1.5886
vt 1.3908 1.7048
vt -0.2130 0.7035
vt -0.2130 0.8671
vt -0.5561 0.8671
vt -0.5561 0.7035
vt 0.1085 1.3757
vt 0.9957 1.3757
vt 0.9174 1.5193
vt 0.0302 1.5193
vt -0.1946 1.1384
vt -0.2022 1.1384
vt -0.2098 0.7036
vt -0.2022 0.7035
vt -0.1914 0.7035
vt -0.1838 0.7035
vt -0.1762 1.1384
vt -0.1838 1.1384
vt 0.6624 -0.1593
vt 0.6624 -0.1623
vt 0.8327 -0.1653
vt 0.8328 -0.1623
vt 0.6624 -0.9400
vt 1.1645 -0.9400
vt 1.1645 -0.5225
vt 0.6624 -0.5225
vt 1.0854 1.3093
vt 0.5832 1.3093
vt 0.5832 0.8918
vt 1.0854 0.8918
vt 1.9086 0.6690
vt 1.6525 0.6690
vt 1.6525 0.2515
vt 1.9086 0.2515
vt -0.5366 1.7170
vt -0.7928 1.7170
vt -0.9385 1.6428
vt -0.6824 1.6428
vt 1.0850 0.5946
vt 1.0850 0.2515
vt 1.1938 0.2515
vt 1.5024 0.5946
vt 1.6972 -0.1976
vt 1.6972 0.2199
vt 1.4411 0.2199
vt 1.4411 -0.1976
vt 1.5140 -0.9400
vt 1.7702 -0.9400
vt 1.7702 -0.5225
vt 1.5140 -0.5225
vt 1.4275 1.3757
vt 1.5746 1.5854
vt 1.1461 1.5854
vt 0.9990 1.3757
vt 0.5764 0.8886
vt 0.1589 0.8886
vt -0.1294 0.5717
vt 0.2880 0.5717
vt -0.5100 0.9169
vt -0.2291 1.2256
vt -0.6576 1.2256
vt -0.9385 0.9169
vt 1.1646 -0.1685
vt 0.9085 -0.1685
vt 0.6624 -0.5193
vt 0.9185 -0.5193
vt 1.0081 0.6722
vt 1.1552 0.8819
vt 0.7267 0.8819
vt 0.5796 0.6722
vt 0.2991 0.8918
vt 0.5800 1.2006
vt 0.1515 1.2006
vt -0.1294 0.8918
vt 0.6812 -0.0833
vt 0.6812 0.3505
vt -0.5259 0.3505
vt 0.2144 0.2087
vt 0.3396 -0.0798
vt 0.7330 1.0395
vt -0.0209 1.0395
vt -0.0209 0.7878
vt 0.7330 0.7878
vt 0.3396 0.7826
vt 0.2144 0.4940
vt -0.5259 0.3522
vt 0.6812 0.3522
vt 0.6812 0.7861
vt 1.1862 -0.0833
vt 1.1862 0.3505
vt 0.6829 0.3505
vt 0.6829 -0.0833
vt 0.7347 1.2269
vt 1.2381 1.2269
vt 1.2381 1.4398
vt 0.7347 1.4398
vt -0.5172 -0.0851
vt -0.5259 -0.5874
vt -0.5172 -0.5875
vt 0.6877 -0.5875
vt 0.6877 -0.0851
vt -0.0226 0.7878
vt -0.0226 1.2216
vt -0.5259 1.2216
vt -0.5259 0.7878
vt 0.8161 0.7812
vt 0.6829 0.3522
vt 1.0245 0.3522
vt 1.0289 0.7861
vt 0.6895 -0.1383
vt 0.6895 -0.5875
vt 0.9411 -0.5875
vt 1.1928 -0.5875
vt 1.1928 -0.1383
vt 0.7347 1.2252
vt 0.7347 0.7913
vt 1.0763 0.7878
vt 0.9475 1.2181
vt 1.0307 0.6667
vt 1.0307 0.3522
vt 1.2823 0.3522
vt 1.2823 0.6667
vt 1.0780 1.1023
vt 1.0780 0.7878
vt 1.3297 0.7878
vt 1.3297 1.1023
vt 0.7330 1.2929
vt -0.0209 1.2929
vt -0.0209 1.0412
vt 0.7330 1.0412
vt -0.0209 1.4624
vt -0.0209 1.2946
vt 0.4460 1.2946
vt 0.1597 1.3494
vt 0.1113 1.4610
vt 1.0307 0.6684
vt 1.3222 0.6684
vt 1.3222 0.7658
vt 1.0307 0.7658
vt -0.3938 1.4211
vt -0.3454 1.5326
vt -0.0590 1.5875
vt -0.5259 1.5875
vt -0.5259 1.4197
vt 1.3827 0.1131
vt 1.3827 0.2809
vt 1.1879 0.2809
vt 1.1879 0.1131
vt 1.2840 0.5470
vt 1.2840 0.3522
vt 1.3664 0.3522
vt 1.3664 0.5470
vt -0.0592 1.2234
vt -0.0584 1.3207
vt -0.0592 1.4180
vt -0.5259 1.4180
vt -0.5259 1.2234
vt 1.3892 -0.5875
vt 1.3892 -0.4197
vt 1.1945 -0.4197
vt 1.1945 -0.5875
vt 1.2769 -0.4161
vt 1.3284 -0.2502
vt 1.1963 -0.2502
vt 1.1945 -0.4180
vt 1.3617 0.1114
vt 1.1879 0.1114
vt 1.1879 0.0140
vt 1.1879 -0.0833
vt 1.3617 -0.0833
vt 1.1945 -0.2485
vt 1.3623 -0.2485
vt 1.3637 -0.1163
vt 1.1973 -0.1661
vt 1.4213 0.6442
vt 1.4213 0.7658
vt 1.3240 0.7658
vt 1.3240 0.6442
vt 1.3371 1.2269
vt 1.3371 1.3485
vt 1.2398 1.3485
vt 1.2398 1.2269
vt 1.0780 1.1040
vt 1.3696 1.1040
vt 1.3696 1.2013
vt 1.0780 1.2013
vt 1.0396 1.3130
vt 1.0396 1.6092
vt -0.1758 1.6092
vt -0.1865 1.3054
vt 2.1017 -0.4483
vt 2.2594 -0.1883
vt 1.0592 -0.1883
vt 1.2170 -0.4483
vt -0.1859 -0.3156
vt -0.1752 -0.6194
vt 1.0402 -0.6194
vt 1.0402 -0.3232
vt -0.1605 1.6131
vt 1.0396 1.6131
vt 0.7980 2.2197
vt 0.0811 2.2197
vt 1.0435 2.0619
vt 1.0435 1.1773
vt 2.2594 1.0195
vt 2.2594 2.2197
vt 1.0440 1.0157
vt 1.0440 -0.1845
vt 2.2594 -0.1845
vt 2.2594 1.0157
vt -0.8355 1.0157
vt -0.8355 0.2987
vt 1.0402 0.2987
vt 1.0402 1.0157
vt -0.8140 -0.0052
vt -0.8140 -0.3014
vt -0.1638 -0.2418
vt -0.1638 -0.0648
vt -0.8140 0.2949
vt -0.8140 -0.0014
vt -0.1638 0.0583
vt -0.1638 0.2352
vt 1.0402 0.2949
vt -0.1600 0.2949
vt 0.0816 -0.3117
vt 0.7986 -0.3117
vt 0.3194 -0.8039
vt -0.3976 -0.8039
vt -0.3976 -0.9540
vt 0.3194 -0.9540
vt -0.8421 -0.6233
vt -0.8348 -0.8001
vt 1.0402 -0.7500
vt 0.9166 -0.6233
vt 1.0402 -0.9579
vt -0.7186 -0.9579
vt -0.7186 -1.0152
vt -0.2789 -1.0152
vt 0.1608 -1.0152
vt 0.6005 -1.0152
vt 1.0402 -1.0152
vt -0.8360 1.3015
vt -0.8386 1.1246
vt 0.9195 1.1716
vt 1.0396 1.3015
vt 1.0901 -1.1420
vt 1.8071 -1.1420
vt 1.8071 -1.0159
vt 1.0901 -1.0159
vt -0.8393 0.4771
vt -0.8393 0.6540
vt -0.9894 0.6540
vt -0.9894 0.4771
vt 0.3232 -0.9540
vt 1.0402 -0.9540
vt 1.0402 -0.8039
vt 0.3232 -0.8039
vt -0.9894 0.8349
vt -0.9894 0.6579
vt -0.8393 0.6579
vt -0.8393 0.8349
vt 1.0401 -1.0191
vt 0.3232 -1.0191
vt 0.3232 -1.1641
vt 0.6817 -1.0378
vt 1.0402 -1.1641
vt -1.0925 1.0157
vt -1.0925 0.8387
vt -0.9697 0.8673
vt -0.8393 0.9870
vt -0.1644 2.2197
vt -0.8813 2.2197
vt -0.8813 1.9649
vt -0.1644 1.9649
vt 1.5722 -0.7707
vt 1.5523 -0.9465
vt 1.8071 -0.9465
vt 1.6910 -0.8129
vt -1.0231 1.4207
vt -1.0228 1.3322
vt -0.6427 1.3322
vt -0.6430 1.4207
vt -0.9875 1.3015
vt -0.9875 1.1246
vt -0.8424 1.1246
vt -0.8424 1.2131
vt -0.8424 1.3015
vt -1.1184 -0.9490
vt -0.4015 -0.9490
vt -0.4014 -0.8039
vt -0.7599 -0.9303
vt -1.1184 -0.8039
vt -0.8393 0.4732
vt -1.0163 0.4732
vt -1.0163 0.3282
vt -0.9278 0.3282
vt -0.8393 0.3282
vt -1.1034 1.1207
vt -1.1031 1.0323
vt -0.7230 1.0323
vt -0.7233 1.1207
vt 1.4270 -1.1459
vt 1.4266 -1.2343
vt 1.8067 -1.2343
vt 1.8071 -1.1459
vt -1.0512 -0.5041
vt -1.0516 -0.5926
vt -0.6715 -0.5926
vt -0.6711 -0.5041
vt 1.8197 -1.0525
vt 1.8179 -1.2372
vt 2.2576 -1.2372
vt 2.2594 -1.0525
vt 2.2594 -0.4521
vt 1.5424 -0.4521
vt 1.5424 -0.5095
vt 1.7217 -0.5541
vt 1.9009 -0.7668
vt 2.0802 -0.5541
vt 2.2594 -0.5095
vt -0.8814 1.6369
vt -0.1644 1.6369
vt -0.1644 1.6943
vt -0.3437 1.6498
vt -0.5229 1.6732
vt -0.7021 1.6498
vt -0.8814 1.6943
vt -0.7191 1.0634
vt 1.0396 1.0634
vt 1.0396 1.1207
vt 0.5999 1.1207
vt 0.1602 1.1207
vt -0.2794 1.1207
vt -0.7191 1.1207
vt 1.8109 -0.7707
vt 1.8197 -1.0487
vt 2.2594 -1.0487
vt 2.2506 -0.7707
vt -0.6865 1.8752
vt -0.6502 1.6981
vt -0.1644 1.6981
vt -0.2552 1.9610
vt -0.5657 -1.0191
vt -0.5676 -1.2038
vt -0.1279 -1.2038
vt -0.1261 -1.0191
vt -0.6663 -0.4104
vt -0.6673 -0.5911
vt -0.2276 -0.5911
vt -0.1898 -0.3156
vt -1.2576 -0.0783
vt -1.2585 -0.2590
vt -0.8188 -0.2590
vt -0.8179 -0.0783
vt -1.1300 1.9610
vt -1.1318 1.7763
vt -0.6922 1.7763
vt -0.6903 1.9610
vt -1.1639 -0.9579
vt -1.1621 -1.1426
vt -0.7224 -1.1426
vt -0.7243 -0.9579
vt -0.1222 -1.0191
vt -0.1204 -1.2038
vt 0.3193 -1.2038
vt 0.3175 -1.0191
vt -1.2585 0.1063
vt -1.2576 -0.0744
vt -0.8179 -0.0744
vt -0.8188 0.1063
vt -1.1126 -0.3156
vt -1.1108 -0.5003
vt -0.6711 -0.5003
vt -0.6730 -0.3156
vt -1.0842 1.6092
vt -1.0823 1.4245
vt -0.6427 1.4245
vt -0.6445 1.6092
vt 1.0901 -0.7340
vt 1.0989 -1.0120
vt 1.5386 -1.0120
vt 1.5298 -0.7340
vt 1.0989 -0.4521
vt 1.0901 -0.7302
vt 1.5298 -0.7302
vt 1.5386 -0.4521
vt -0.6300 1.6092
vt -0.6388 1.3312
vt -0.1991 1.3312
vt -0.1903 1.6092
vt -1.2576 0.2949
vt -1.2594 0.1102
vt -0.8197 0.1102
vt -0.8179 0.2949
vt 0.1979 -7.0494
vt 0.1979 8.0481
vt -0.0656 8.0494
vt -0.0657 -7.0481
vt -0.3326 -7.0494
vt -0.3327 8.0481
vt -0.5962 8.0494
vt -0.5961 -7.0481
vt 0.4648 -6.8316
vt 0.6809 -6.8316
vt 0.6809 -6.6154
vt 0.4648 -6.6154
vt -0.0673 -7.0494
vt -0.0674 8.0481
vt -0.3310 8.0494
vt -0.3308 -7.0481
vt 0.4631 -7.0494
vt 0.4631 8.0481
vt 0.1996 8.0494
vt 0.1996 -7.0481
vt 0.6809 -7.0494
vt 0.6809 -6.8333
vt 0.4648 -6.8333
vt 0.4648 -7.0494
vn 0.0000 0.0000 1.0000
vn 0.5272 0.0000 -0.8498
vn 0.0000 -1.0000 0.0000
vn 0.0000 1.0000 0.0000
vn 0.6689 0.7434 0.0000
vn 0.4765 -0.8792 0.0000
vn 0.5272 0.0000 0.8498
vn -0.5272 0.0000 -0.8498
vn -0.4765 -0.8792 0.0000
vn 0.7327 -0.5692 -0.3730
vn -1.0000 0.0000 0.0000
vn -0.6689 0.7434 0.0000
vn -0.9779 0.0000 0.2092
vn 0.4765 0.8792 0.0000
vn 0.6985 0.0000 0.7156
vn -0.6985 0.0000 -0.7156
vn -0.8912 0.0000 -0.4536
vn -0.5272 0.0000 0.8498
vn 0.0000 0.0000 -1.0000
vn 1.0000 0.0000 0.0000
vn -0.4765 0.8792 0.0000
vn -0.6985 0.0000 0.7156
vn 0.6985 0.0000 -0.7156
vn 0.8912 0.0000 -0.4536
vn 0.8912 0.0000 0.4536
vn -0.8912 0.0000 0.4536
vn -0.7327 0.5692 0.3730
vn -0.9779 0.0000 -0.2092
vn 0.9779 0.0000 -0.2092
vn 0.7327 0.5692 0.3730
vn -0.7327 -0.5692 -0.3730
vn 0.9779 0.0000 0.2092
vn 0.0000 -0.9821 -0.1881
vn 0.0000 -0.9995 -0.0331
vn 0.0000 -0.2866 -0.9580
vn 0.0000 -0.3979 -0.9174
vn 0.0000 0.8950 0.4460
vn 0.0000 0.2697 -0.9630
vn 0.0000 0.9535 0.3014
vn 0.0000 -0.9630 -0.2697
vn 0.0000 0.0177 0.9998
vn 0.0000 0.1358 0.9907
vn -0.9599 -0.2723 -0.0664
vn 0.9599 -0.2723 -0.0664
vn 0.0000 0.9952 0.0983
vn 0.0000 -0.9996 -0.0298
vn 0.0000 -0.9999 -0.0147
vn 0.9284 0.0000 0.3716
vn -0.9284 0.0000 0.3716
vn 0.0000 -0.9952 0.0983
vn 0.0000 -0.7442 0.6680
vn 0.0000 0.8764 -0.4815
vn 0.0000 0.7442 -0.6680
vn 0.0000 -0.0199 0.9998
vn 0.0000 -0.6644 0.7474
vn 0.3325 0.9431 0.0106
vn 0.0000 0.0199 -0.9998
vn -0.3325 0.9431 0.0106
vn 0.2414 0.9696 0.0401
vn 0.0000 -0.0806 -0.9967
vn -0.0000 0.1308 -0.9914
vn -0.7644 0.6441 0.0267
vn -0.5378 0.8166 0.2098
vn 0.5378 0.8166 0.2098
vn 0.1292 0.9908 0.0410
vn -0.2414 0.9696 0.0401
vn -0.1292 0.9908 0.0410
vn 0.7644 0.6441 0.0267
vn -0.0000 -0.7071 -0.7071
vn -0.0000 -0.7071 0.7071
vn 0.0000 0.7071 0.7071
vn 0.0000 0.7071 -0.7071
usemtl Material.001
s off
f 69/1/1 67/2/1 93/3/1 91/4/1
f 107/5/2 106/6/2 105/7/2 108/8/2
f 105/9/3 100/10/3 102/11/3 103/12/3
f 71/13/1 73/14/1 68/15/1 67/16/1
f 104/17/4 101/18/4 99/19/4 106/20/4
f 72/21/5 70/22/5 68/23/5 73/24/5
f 108/25/6 105/26/6 103/27/6 110/28/6
f 93/29/7 92/30/7 87/31/7 86/32/7
f 90/33/8 91/34/8 88/35/8 89/36/8
f 91/37/9 93/38/9 86/39/9 88/40/9
f 102/41/10 95/42/10 115/43/10 118/44/10
f 88/45/3 86/46/3 85/47/3 82/48/3
f 71/49/1 76/50/1 77/51/1 73/52/1
f 87/53/4 89/54/4 81/55/4 84/56/4
f 75/57/11 78/58/11 80/59/11 79/60/11
f 84/61/4 81/62/4 80/63/4 78/64/4
f 72/65/12 73/66/12 77/67/12 94/68/12
f 69/69/3 74/70/3 71/71/3 67/72/3
f 78/73/13 75/74/13 111/75/13 112/76/13
f 92/77/14 90/78/14 89/79/14 87/80/14
f 70/81/1 69/82/1 91/83/1 90/84/1
f 67/85/1 68/86/1 92/87/1 93/88/1
f 68/89/1 70/90/1 90/91/1 92/92/1
f 86/93/15 87/94/15 84/95/15 85/96/15
f 83/97/1 108/98/1 110/99/1 76/100/1
f 89/101/16 88/102/16 82/103/16 81/104/16
f 81/105/17 82/106/17 79/107/17 80/108/17
f 82/109/3 85/110/3 75/111/3 79/112/3
f 110/113/18 103/114/18 104/115/18 109/116/18
f 69/117/19 70/118/19 72/119/19 74/120/19
f 95/121/20 97/122/20 98/123/20 96/124/20
f 101/125/4 96/126/4 98/127/4 99/128/4
f 83/129/3 76/130/3 71/131/3 74/132/3
f 109/133/21 104/134/21 106/135/21 107/136/21
f 94/137/1 107/138/1 108/139/1 83/140/1
f 76/141/1 110/142/1 109/143/1 77/144/1
f 77/145/1 109/146/1 107/147/1 94/148/1
f 103/149/22 102/150/22 101/151/22 104/152/22
f 106/153/23 99/154/23 100/155/23 105/156/23
f 99/157/24 98/158/24 97/159/24 100/160/24
f 100/161/3 97/162/3 95/163/3 102/164/3
f 83/165/19 74/166/19 72/167/19 94/168/19
f 114/169/25 113/170/25 112/171/25 111/172/25
f 118/173/26 115/174/26 116/175/26 117/176/26
f 96/177/27 101/178/27 117/179/27 116/180/27
f 101/181/28 102/182/28 118/183/28 117/184/28
f 85/185/29 84/186/29 113/187/29 114/188/29
f 84/189/30 78/190/30 112/191/30 113/192/30
f 75/193/31 85/194/31 114/195/31 111/196/31
f 95/197/32 96/198/32 116/199/32 115/200/32
f 127/201/11 120/202/11 122/203/11 132/204/11 128/205/11
f 135/206/33 131/207/33 126/208/33 133/209/33
f 129/210/20 133/211/20 126/212/20 124/213/20 130/214/20
f 130/215/1 124/216/1 120/217/1 127/218/1
f 121/219/34 125/220/34 123/221/34 119/222/34
f 126/223/4 131/224/4 122/225/4 120/226/4 124/227/4
f 123/228/1 130/229/1 127/230/1 119/231/1
f 125/232/20 129/233/20 130/234/20 123/235/20
f 121/236/35 128/237/35 134/238/35 129/239/35 125/240/35
f 119/241/11 127/242/11 128/243/11 121/244/11
f 134/245/36 135/246/36 133/247/36 129/248/36
f 128/249/36 132/250/36 135/251/36 134/252/36
f 132/253/33 122/254/33 131/255/33 135/256/33
f 144/257/11 137/258/11 139/259/11 149/260/11 145/261/11
f 152/262/37 148/263/37 143/264/37 150/265/37
f 146/266/20 150/267/20 143/268/20 141/269/20 147/270/20
f 147/271/38 141/272/38 137/273/38 144/274/38
f 138/275/39 142/276/39 140/277/39 136/278/39
f 143/279/40 148/280/40 139/281/40 137/282/40 141/283/40
f 140/284/38 147/285/38 144/286/38 136/287/38
f 142/288/20 146/289/20 147/290/20 140/291/20
f 138/292/41 145/293/41 151/294/41 146/295/41 142/296/41
f 136/297/11 144/298/11 145/299/11 138/300/11
f 151/301/42 152/302/42 150/303/42 146/304/42
f 145/305/42 149/306/42 152/307/42 151/308/42
f 149/309/37 139/310/37 148/311/37 152/312/37
usemtl Material.002
f 9/313/43 10/314/43 12/315/43 11/316/43
f 11/317/19 12/318/19 16/319/19 15/320/19
f 15/321/44 16/322/44 14/323/44 13/324/44
f 14/325/45 10/326/45 18/327/45 20/328/45
f 11/329/46 15/330/46 13/331/46 9/332/46
f 16/333/4 12/334/4 10/335/4 14/336/4
f 17/337/47 19/338/47 23/339/47 21/340/47
f 13/341/48 14/342/48 20/343/48 19/344/48
f 10/345/49 9/346/49 17/347/49 18/348/49
f 9/349/50 13/350/50 19/351/50 17/352/50
f 21/353/51 23/354/51 27/355/51 25/356/51
f 18/357/11 17/358/11 21/359/11 22/360/11
f 24/361/20 20/362/20 43/363/20 54/364/20 49/365/20 58/366/20 45/367/20
f 19/368/20 20/369/20 24/370/20 23/371/20
f 28/372/52 26/373/52 30/374/52 32/375/52
f 22/376/11 21/377/11 25/378/11 26/379/11
f 24/380/53 22/381/53 26/382/53 28/383/53
f 23/384/20 24/385/20 28/386/20 27/387/20
f 29/388/54 31/389/54 35/390/54 39/391/54 33/392/54
f 27/393/20 28/394/20 32/395/20 31/396/20
f 25/397/55 27/398/55 31/399/55 29/400/55
f 26/401/11 25/402/11 29/403/11 30/404/11
f 41/405/56 40/406/56 34/407/56 37/408/56
f 30/409/11 29/410/11 33/411/11 37/412/11 34/413/11
f 32/414/57 30/415/57 34/416/57 40/417/57 36/418/57
f 31/419/20 32/420/20 36/421/20 38/422/20 35/423/20
f 39/424/56 41/425/56 37/426/56 33/427/56
f 35/428/58 38/429/58 41/430/58 39/431/58
f 38/432/58 36/433/58 40/434/58 41/435/58
f 66/436/59 57/437/59 44/438/59 52/439/59
f 22/440/60 24/441/60 45/442/60 56/443/60 47/444/60 52/445/60 44/446/60
f 20/447/61 18/448/61 42/449/61 51/450/61 46/451/61 55/452/61 43/453/61
f 18/454/11 22/455/11 44/456/11 57/457/11 48/458/11 53/459/11 42/460/11
f 65/461/62 59/462/62 47/463/62 56/464/62
f 64/465/63 60/466/63 50/467/63 61/468/63
f 63/469/59 53/470/59 48/471/59 62/472/59
f 60/473/64 63/474/64 62/475/64 50/476/64
f 46/477/65 51/478/65 63/479/65 60/480/65
f 51/481/59 42/482/59 53/483/59 63/484/59
f 54/485/66 64/486/66 61/487/66 49/488/66
f 43/489/66 55/490/66 64/491/66 54/492/66
f 55/493/67 46/494/67 60/495/67 64/496/67
f 58/497/66 65/498/66 56/499/66 45/500/66
f 49/501/66 61/502/66 65/503/66 58/504/66
f 61/505/62 50/506/62 59/507/62 65/508/62
f 59/509/68 66/510/68 52/511/68 47/512/68
f 50/513/68 62/514/68 66/515/68 59/516/68
f 62/517/59 48/518/59 57/519/59 66/520/59
usemtl Material.003
f 1/521/69 2/522/69 4/523/69 3/524/69
f 3/525/70 4/526/70 6/527/70 5/528/70
f 4/529/20 2/530/20 8/531/20 6/532/20
f 5/533/71 6/534/71 8/535/71 7/536/71
f 7/537/72 8/538/72 2/539/72 1/540/72
f 1/541/11 3/542/11 5/543/11 7/544/11
