# Blender v2.78 (sub 0) OBJ File: ''
# www.blender.org
mtllib CrossBowBolt.mtl
o Plane
v 0.060264 0.171001 1.232648
v -0.356426 0.171001 1.232648
v 0.060264 0.171001 1.649338
v -0.356426 0.171001 1.649338
v -0.144944 -0.004232 1.270910
v -0.134441 0.382488 1.270910
v -0.144944 -0.004232 1.657773
v -0.134441 0.382488 1.657773
v -0.148081 0.171001 1.528875
v -0.139692 0.189128 1.537001
v 0.060264 0.171001 1.232648
v -0.356426 0.171001 1.232648
v 0.060264 0.171001 1.649338
v -0.356426 0.171001 1.649338
v -0.144944 -0.004232 1.270910
v -0.134441 0.382488 1.270910
v -0.144944 -0.004232 1.657773
v -0.134441 0.382488 1.657773
v -0.148081 0.171001 1.528875
v -0.139692 0.189128 1.537001
v -0.143400 0.084681 1.502367
v -0.143400 0.084681 -1.935717
v -0.228964 0.170245 1.502367
v -0.228964 0.170245 -1.935717
v -0.143400 0.255809 1.502367
v -0.143400 0.255809 -1.935717
v -0.057835 0.170245 1.502367
v -0.057835 0.170245 -1.935717
v -0.143400 0.084681 -1.481102
v -0.228964 0.170245 -1.481102
v -0.143400 0.255809 -1.481102
v -0.057835 0.170245 -1.481102
v -0.228964 0.170245 -1.130821
v -0.143400 0.255809 -1.130821
v -0.057835 0.170245 -1.130821
v -0.143400 0.084681 -1.130821
v -0.143400 0.156549 1.534845
v -0.157096 0.170245 1.534845
v -0.143400 0.183941 1.534845
v -0.129703 0.170245 1.534845
v -0.143400 0.016399 -1.985176
v 0.006124 0.275301 -1.978768
v -0.143400 0.197543 -2.757517
v -0.292923 0.275301 -1.978768
v -0.143400 0.016399 -1.985176
v 0.006124 0.275301 -1.978768
v -0.292923 0.275301 -1.978768
v -0.143400 0.132048 -1.728763
v -0.099495 0.208070 -1.726881
v -0.187304 0.208070 -1.726881
vt 0.2627 0.5071
vt 0.5048 0.2493
vt 0.7626 0.4914
vt 0.5670 0.5503
vt 0.5205 0.7492
vt 0.5211 0.2330
vt 0.7670 0.0025
vt 0.9975 0.2484
vt 0.8026 0.2869
vt 0.7516 0.4789
vt -0.2071 0.5040
vt 0.4960 -0.2071
vt 1.2071 0.4960
vt 0.5040 1.2071
vt -0.2071 0.5040
vt 0.4960 -0.2071
vt 1.2071 0.4960
vt 0.5040 1.2071
vt -0.2071 0.5040
vt 0.4960 -0.2071
vt 1.2071 0.4960
vt 0.5040 1.2071
vt -0.2071 0.5040
vt 0.4960 -0.2071
vt 1.2071 0.4960
vt 0.5040 1.2071
vt 0.4431 1.0132
vt 1.6559 1.0132
vt 0.8069 1.8794
vt -0.4977 1.8794
vt -0.0279 0.7612
vt 0.4418 1.8794
vt 0.4431 0.1458
vt 1.6559 0.1458
vt 0.8069 1.0120
vt 1.6559 -0.7111
vt 0.7156 -0.7111
vt 0.7156 -0.7275
vt 1.6558 -0.7275
vt 0.4418 -0.0604
vt -0.4977 -0.0604
vt -0.1659 -0.8794
vt 0.1100 -0.8794
vt 0.7156 -0.6922
vt 1.6559 -0.6922
vt 1.6559 -0.6758
vt 0.7156 -0.6758
vt 0.7156 -0.7098
vt 1.6559 -0.7098
vt 1.6559 -0.6934
vt 0.7156 -0.6934
vt -0.6369 1.8794
vt -0.7748 1.6405
vt -0.4989 1.6405
vt 0.7165 -0.6745
vt 1.6559 -0.6745
vt 1.3241 0.1445
vt 1.0483 0.1445
vt -0.4977 -0.0591
vt 0.4418 -0.0591
vt 0.1100 0.7599
vt -0.1659 0.7599
vt -0.0835 0.3009
vt 0.7055 0.2834
vt 0.7102 0.4934
vt -0.0788 0.5109
vt -0.0742 0.7216
vt 0.7148 0.7042
vt 0.7195 0.9142
vt -0.0695 0.9316
vt 0.9252 0.6995
vt 0.9299 0.9095
vt 0.7198 0.9142
vt 0.7152 0.7042
vt -0.0788 0.5112
vt 0.7102 0.4938
vt 0.7148 0.7038
vt -0.0742 0.7212
vt -0.0881 0.0905
vt 0.7009 0.0730
vt 0.7055 0.2830
vt -0.0835 0.3005
vt -2.0652 -0.0377
vt -2.0606 0.1936
vt -2.1778 0.0988
vt -2.1786 0.0617
vt -2.4035 0.4339
vt 2.6298 0.3331
vt 2.6345 0.5644
vt -2.3989 0.6652
vt -2.4082 0.2015
vt 2.6252 0.1007
vt 2.6298 0.3321
vt -2.4035 0.4329
vt -2.3941 0.8985
vt 2.6393 0.7995
vt 2.6438 1.0308
vt -2.3896 1.1298
vt -2.3989 0.6662
vt 2.6345 0.5654
vt 2.6391 0.7967
vt -2.3942 0.8975
vt -1.8278 0.1519
vt -1.7907 0.1511
vt -1.7900 0.1882
vt -1.8270 0.1889
vt -2.4105 0.0853
vt -2.1792 0.0806
vt -2.2740 0.1979
vt -2.3110 0.1986
vt -1.9489 -0.0401
vt -1.9443 0.1913
vt -2.0615 0.0964
vt -2.0623 0.0594
vt -1.9433 0.1912
vt -1.9479 -0.0401
vt -1.8307 0.0548
vt -1.8300 0.0918
vt 0.0000 0.0000
vt 0.0000 0.0000
vt 0.0000 0.0000
vt 0.0000 0.0000
vt 0.0000 0.0000
vt 0.0000 0.0000
vt 0.0000 0.0000
vt 0.0000 0.0000
vt 0.0000 0.0000
vt 0.0000 0.0000
vt 0.0000 0.0000
vt 0.0000 0.0000
vt 0.0000 0.0000
vt 0.0000 0.0000
vt 0.0000 0.0000
vt 0.0000 0.0000
vt 0.0000 0.0000
vt 0.0000 0.0000
vt 0.0000 0.0000
vt 0.0000 0.0000
vn 0.0000 1.0000 0.0000
vn 0.9996 -0.0271 -0.0000
vn -0.7071 0.7071 0.0000
vn -0.7071 -0.7071 0.0000
vn 0.7071 -0.7071 0.0000
vn 0.7071 0.7071 0.0000
vn 0.8614 -0.4946 -0.1160
vn 0.0000 0.9951 -0.0994
vn -0.8614 -0.4946 -0.1160
vn 0.0000 0.0000 1.0000
vn -0.8420 -0.4918 0.2218
vn 0.0000 -0.0247 0.9997
vn -0.0000 0.9662 0.2579
vn 0.8420 -0.4918 0.2218
vn 0.3808 -0.3808 -0.8426
vn 0.0000 0.0000 -1.0000
vn 0.3808 0.3808 -0.8426
vn -0.3808 -0.3808 -0.8426
vn -0.3808 0.3808 -0.8426
vn 0.0000 -1.0000 0.0000
vn -0.9996 0.0271 0.0000
usemtl None
s off
f 11/1/1 12/2/1 14/3/1 19/4/1 13/5/1
f 15/6/2 16/7/2 18/8/2 20/9/2 17/10/2
f 35/11/3 32/12/3 29/13/3 36/14/3
f 34/15/4 31/16/4 32/17/4 35/18/4
f 33/19/5 30/20/5 31/21/5 34/22/5
f 36/23/6 29/24/6 30/25/6 33/26/6
usemtl None_cartoon_metal.jpg
f 41/27/7 43/28/7 42/29/7
f 42/30/8 43/31/8 44/32/8
f 44/33/9 43/34/9 41/35/9
f 44/36/10 41/37/10 45/38/10 47/39/10
f 47/40/11 45/41/11 48/42/11 50/43/11
f 42/44/10 44/45/10 47/46/10 46/47/10
f 41/48/10 42/49/10 46/50/10 45/51/10
f 48/52/12 49/53/12 50/54/12
f 46/55/13 47/56/13 50/57/13 49/58/13
f 45/59/14 46/60/14 49/61/14 48/62/14
usemtl None_cartoon_tree.jpg
f 29/63/6 22/64/6 24/65/6 30/66/6
f 30/67/5 24/68/5 26/69/5 31/70/5
f 24/71/10 22/72/10 28/73/10 26/74/10
f 31/75/4 26/76/4 28/77/4 32/78/4
f 32/79/3 28/80/3 22/81/3 29/82/3
f 23/83/15 25/84/15 39/85/15 38/86/15
f 21/87/6 36/88/6 33/89/6 23/90/6
f 23/91/5 33/92/5 34/93/5 25/94/5
f 25/95/4 34/96/4 35/97/4 27/98/4
f 27/99/3 35/100/3 36/101/3 21/102/3
f 37/103/16 38/104/16 39/105/16 40/106/16
f 21/107/17 23/108/17 38/109/17 37/110/17
f 25/111/18 27/112/18 40/113/18 39/114/18
f 27/115/19 21/116/19 37/117/19 40/118/19
usemtl None_NONE
f 1/119/20 3/120/20 9/121/20 4/122/20 2/123/20
f 5/124/21 7/125/21 10/126/21 8/127/21 6/128/21
f 2/123/10 4/122/10 14/129/10 12/130/10
f 8/127/10 10/126/10 20/131/10 18/132/10
f 6/128/10 8/127/10 18/132/10 16/133/10
f 9/121/10 3/120/10 13/134/10 19/135/10
f 3/120/10 1/119/10 11/136/10 13/134/10
f 10/126/10 7/125/10 17/137/10 20/131/10
f 7/125/10 5/124/10 15/138/10 17/137/10
f 1/119/10 2/123/10 12/130/10 11/136/10
f 4/122/10 9/121/10 19/135/10 14/129/10
f 5/124/10 6/128/10 16/133/10 15/138/10
